<svg width="512" height="512" viewBox="0 0 512 512" fill="none" xmlns="http://www.w3.org/2000/svg">
<path d="M255.5 480C213.024 480 175.703 470.512 143.536 451.536C111.37 432.56 86.0081 406.365 67.4506 372.95C49.3055 339.123 40.233 300.14 40.233 256C40.233 211.86 49.3055 173.083 67.4506 139.668C86.0081 105.842 111.37 79.4401 143.536 60.4641C175.703 41.488 213.024 32 255.5 32C297.976 32 335.503 41.488 368.082 60.4641C400.661 79.4401 425.817 105.842 443.549 139.668C461.695 173.083 470.767 211.86 470.767 256C470.767 300.14 461.695 339.123 443.549 372.95C425.817 406.365 400.661 432.56 368.082 451.536C335.503 470.512 297.976 480 255.5 480ZM255.5 396.464C280.656 396.464 302.1 390.689 319.833 379.138C337.978 367.587 351.999 351.499 361.896 330.873C371.794 309.834 376.742 284.877 376.742 256C376.742 227.123 371.794 202.372 361.896 181.746C351.999 160.707 337.978 144.619 319.833 133.481C302.1 121.93 280.656 116.155 255.5 116.155C231.169 116.155 209.931 121.93 191.786 133.481C173.641 144.619 159.62 160.707 149.722 181.746C139.825 202.372 134.876 227.123 134.876 256C134.876 284.877 139.825 309.834 149.722 330.873C159.62 351.499 173.641 367.587 191.786 379.138C209.931 390.689 231.169 396.464 255.5 396.464Z" fill="#F9A306"/>
</svg>
